<svg id="Layer_1" data-name="Layer 1" xmlns="http://www.w3.org/2000/svg" viewBox="0 0 595.28 841.89"><title>viz_schema</title><text transform="translate(44.63 74.4)" style="opacity:0.5;font-size:17px;fill:#8e8e8e;font-family:Source Sans Pro">Schema</text><text transform="translate(107.05 211.62) rotate(4.74)" style="font-size:8px;fill:#505251;font-family:Source Sans Pro">C<tspan x="4.42" y="0">CD</tspan></text><text transform="translate(305.26 313.65) rotate(99.3)" style="font-size:8px;fill:#505251;font-family:Source Sans Pro">ICH</text><text transform="matrix(0.96, 0.3, -0.3, 0.96, 451.38, 273.15)" style="font-size:8px;fill:#505251;font-family:Source Sans Pro">ICH</text><text transform="translate(344.67 133.68) rotate(-91.32)" style="font-size:8px;fill:#505251;font-family:Source Sans Pro">ICH</text><g style="opacity:0.15"><rect x="339.23" y="124.1" width="1.66" height="200.77" style="fill:#a3a278"/><rect x="339.3" y="123.93" width="1.66" height="200.77" transform="translate(-39.21 75.62) rotate(-12)" style="fill:#a3a278"/><rect x="339.35" y="123.75" width="1.66" height="200.77" transform="translate(-61.76 157.74) rotate(-24)" style="fill:#a3a278"/><rect x="339.35" y="123.57" width="1.66" height="200.77" transform="translate(-66.67 242.72) rotate(-36)" style="fill:#a3a278"/><rect x="339.31" y="123.39" width="1.66" height="200.77" transform="translate(-53.76 326.82) rotate(-48)" style="fill:#a3a278"/><rect x="339.24" y="123.23" width="1.66" height="200.77" transform="matrix(0.5, -0.87, 0.87, 0.5, -23.62, 406.32)" style="fill:#a3a278"/><rect x="339.14" y="123.08" width="1.66" height="200.77" transform="translate(22.39 477.74) rotate(-72)" style="fill:#a3a278"/><rect x="339.01" y="122.95" width="1.66" height="200.77" transform="translate(82.2 537.97) rotate(-84)" style="fill:#a3a278"/><rect x="338.85" y="122.86" width="1.66" height="200.77" transform="translate(153.16 584.4) rotate(-96)" style="fill:#a3a278"/><rect x="338.68" y="122.8" width="1.66" height="200.77" transform="translate(232.16 615.04) rotate(-108)" style="fill:#a3a278"/><rect x="338.5" y="122.78" width="1.66" height="200.77" transform="translate(315.72 628.61) rotate(-120)" style="fill:#a3a278"/><rect x="338.32" y="122.79" width="1.66" height="200.77" transform="translate(400.22 624.55) rotate(-132)" style="fill:#a3a278"/><rect x="338.14" y="122.85" width="1.66" height="200.77" transform="translate(481.99 603.07) rotate(-144)" style="fill:#a3a278"/><rect x="337.98" y="122.94" width="1.66" height="200.77" transform="translate(557.5 565.14) rotate(-156)" style="fill:#a3a278"/><rect x="337.85" y="123.05" width="1.66" height="200.77" transform="translate(623.49 512.41) rotate(-168)" style="fill:#a3a278"/></g><polygon points="55.93 163.27 54.64 160.44 51.55 160.16 49.75 162.69 51.04 165.51 54.13 165.8 55.93 163.27" style="fill:#c4c3c0"/><circle cx="52.84" cy="162.98" r="0.93" transform="translate(-113.75 202.99) rotate(-85.54)" style="opacity:0.30000000000000004"/><polygon points="66.47 164.13 65.17 161.31 62.08 161.02 60.28 163.55 61.58 166.37 64.67 166.66 66.47 164.13" style="fill:#c4c3c0"/><circle cx="63.38" cy="163.84" r="0.93" transform="translate(-104.9 214.29) rotate(-85.54)" style="opacity:0.30000000000000004"/><polygon points="77.01 164.99 75.71 162.17 72.62 161.88 70.82 164.41 72.12 167.24 75.21 167.53 77.01 164.99" style="fill:#c4c3c0"/><circle cx="73.91" cy="164.7" r="0.93" transform="translate(-96.04 225.59) rotate(-85.54)" style="opacity:0.30000000000000004"/><polygon points="56.69 154.01 55.4 151.18 52.3 150.9 50.51 153.43 51.8 156.25 54.89 156.54 56.69 154.01" style="fill:#c4c3c0"/><circle cx="53.6" cy="153.72" r="0.93" transform="translate(-103.82 195.2) rotate(-85.54)" style="opacity:0.30000000000000004"/><polygon points="67.23 154.87 65.93 152.05 62.84 151.76 61.04 154.29 62.34 157.11 65.43 157.4 67.23 154.87" style="fill:#c4c3c0"/><circle cx="64.14" cy="154.58" r="0.93" transform="translate(-94.96 206.5) rotate(-85.54)" style="opacity:0.30000000000000004"/><polygon points="77.76 155.73 76.47 152.91 73.38 152.62 71.58 155.15 72.88 157.98 75.97 158.26 77.76 155.73" style="fill:#c4c3c0"/><circle cx="74.67" cy="155.44" r="0.93" transform="translate(-86.11 217.8) rotate(-85.54)" style="opacity:0.30000000000000004"/><polygon points="54.52 180.51 53.22 177.68 50.13 177.39 48.33 179.93 49.63 182.75 52.72 183.04 54.52 180.51" style="fill:#ccbd2e"/><circle cx="51.42" cy="180.22" r="1" transform="translate(-132.25 217.47) rotate(-85.54)" style="opacity:0.30000000000000004"/><polygon points="65.05 181.37 63.76 178.55 60.66 178.26 58.87 180.79 60.16 183.61 63.26 183.9 65.05 181.37" style="fill:#ccbd2e"/><circle cx="61.96" cy="181.08" r="1" transform="matrix(0.08, -1, 1, 0.08, -123.39, 228.77)" style="opacity:0.30000000000000004"/><polygon points="55.44 172.11 54.15 169.29 51.05 169 49.26 171.53 50.55 174.36 53.64 174.65 55.44 172.11" style="fill:#ccbd2e"/><circle cx="52.35" cy="171.82" r="1" transform="translate(-123.02 210.65) rotate(-85.54)" style="opacity:0.30000000000000004"/><polygon points="65.98 172.98 64.68 170.15 61.59 169.86 59.79 172.4 61.09 175.22 64.18 175.51 65.98 172.98" style="fill:#ccbd2e"/><circle cx="62.89" cy="172.69" r="1" transform="translate(-114.17 221.96) rotate(-85.54)" style="opacity:0.30000000000000004"/><polygon points="57.38 145.8 56.09 142.97 52.99 142.68 51.2 145.22 52.49 148.04 55.58 148.33 57.38 145.8" style="fill:#c4c3c0"/><circle cx="54.29" cy="145.51" r="1" transform="translate(-95 188.32) rotate(-85.54)" style="opacity:0.30000000000000004"/><polygon points="67.92 146.66 66.62 143.84 63.53 143.55 61.73 146.08 63.03 148.9 66.12 149.19 67.92 146.66" style="fill:#c4c3c0"/><circle cx="64.83" cy="146.37" r="1" transform="translate(-86.14 199.62) rotate(-85.54)" style="opacity:0.30000000000000004"/><polygon points="75.59 182.23 74.29 179.41 71.2 179.12 69.41 181.65 70.7 184.47 73.79 184.76 75.59 182.23" style="fill:#ccbd2e"/><circle cx="72.5" cy="181.94" r="1" transform="matrix(0.08, -1, 1, 0.08, -114.53, 240.07)" style="opacity:0.30000000000000004"/><rect x="43.31" y="187.67" width="3.58" height="10.03" rx="1" ry="1" transform="translate(69.82 389.02) rotate(-174)" style="fill:#e69f6a"/><rect x="42.61" y="206.41" width="251.98" height="4" rx="1" ry="1" transform="translate(314.48 433.31) rotate(-174)" style="fill:#e69f6a"/><rect x="42.95" y="200.38" width="251.98" height="4" rx="1" ry="1" transform="translate(315.8 421.3) rotate(-174)" style="fill:#e69f6a"/><path d="M289.51,211.87h1.09a0,0,0,0,1,0,0v12.22a0,0,0,0,1,0,0h-1.09a1.3,1.3,0,0,1-1.3-1.3v-9.61A1.3,1.3,0,0,1,289.51,211.87Z" transform="translate(554.43 465.02) rotate(-174)" style="fill:#171617"/><path d="M51.45,187.64l2.71,7.27a1.61,1.61,0,0,1-.63,1.91l-3.25,2.13a1.59,1.59,0,0,1-1.91-.13l-2.9-2.54a2,2,0,0,1-.36-2.57l4-6.3A1.3,1.3,0,0,1,51.45,187.64Z" style="fill:#232323"/><polyline points="182.61 203.62 179.56 206.54 181.91 209.83" style="fill:none;stroke:#2d2d2d;stroke-linecap:round;stroke-linejoin:round"/><polyline points="179.29 203.37 176.24 206.28 178.59 209.57" style="fill:none;stroke:#2d2d2d;stroke-linecap:round;stroke-linejoin:round"/><polyline points="176.12 203.08 173.06 206 175.42 209.29" style="fill:none;stroke:#2d2d2d;stroke-linecap:round;stroke-linejoin:round"/><path d="M118.47,199.41c-0.17,2.35-2.19,4.44-4.43,4.28s-3.87-2.52-3.69-4.88c0-.37,0-3,0.39-3a58.11,58.11,0,0,1,7.89.73C118.92,196.58,118.49,199.09,118.47,199.41Z" style="fill:#282827"/><path d="M119.09,198a2.36,2.36,0,1,0,1.24,2.67A2.11,2.11,0,0,0,119.09,198Zm-0.9,3.66a1.51,1.51,0,1,1,1.5-1.15A1.35,1.35,0,0,1,118.19,201.63Z" style="fill:#282827"/><polygon points="319.23 104.15 316.46 102.74 316.3 99.64 318.9 97.95 321.67 99.36 321.83 102.46 319.23 104.15" style="fill:#ccbd2e"/><circle cx="319.06" cy="101.05" r="1" transform="translate(-3.46 11.66) rotate(-2.08)" style="opacity:0.30000000000000004"/><polygon points="319.65 114.72 316.88 113.3 316.72 110.2 319.33 108.51 322.1 109.92 322.26 113.03 319.65 114.72" style="fill:#ccbd2e"/><circle cx="319.49" cy="111.61" r="1" transform="translate(-3.84 11.68) rotate(-2.08)" style="opacity:0.30000000000000004"/><polygon points="310.8 104.73 308.04 103.32 307.88 100.22 310.48 98.53 313.25 99.94 313.41 103.04 310.8 104.73" style="fill:#ccbd2e"/><circle cx="310.64" cy="101.63" r="1" transform="translate(-3.49 11.35) rotate(-2.08)" style="opacity:0.30000000000000004"/><polygon points="311.23 115.29 308.46 113.88 308.3 110.78 310.9 109.09 313.67 110.5 313.83 113.6 311.23 115.29" style="fill:#ccbd2e"/><circle cx="311.07" cy="112.19" r="1" transform="translate(-3.87 11.37) rotate(-2.08)" style="opacity:0.30000000000000004"/><polygon points="312.02 125.44 309.26 124.03 309.1 120.93 311.7 119.24 314.47 120.65 314.63 123.75 312.02 125.44" style="fill:#ccbd2e"/><circle cx="311.86" cy="122.34" r="1" transform="translate(-4.24 11.41) rotate(-2.08)" style="opacity:0.30000000000000004"/><polygon points="302.42 104.84 299.66 103.43 299.5 100.33 302.1 98.64 304.87 100.05 305.03 103.15 302.42 104.84" style="fill:#c4c3c0"/><circle cx="302.26" cy="101.74" r="1" transform="translate(-3.5 11.05) rotate(-2.08)" style="opacity:0.30000000000000004"/><polygon points="302.85 115.4 300.08 113.99 299.92 110.89 302.53 109.2 305.29 110.61 305.45 113.71 302.85 115.4" style="fill:#c4c3c0"/><circle cx="302.69" cy="112.3" r="1" transform="translate(-3.88 11.07) rotate(-2.08)" style="opacity:0.30000000000000004"/><polygon points="320.07 125.28 317.31 123.87 317.15 120.77 319.75 119.08 322.52 120.49 322.68 123.59 320.07 125.28" style="fill:#ccbd2e"/><circle cx="319.91" cy="122.18" r="1" transform="translate(-4.23 11.7) rotate(-2.08)" style="opacity:0.30000000000000004"/><rect x="328.45" y="91.17" width="3.58" height="10.03" rx="1" ry="1" transform="translate(247.63 430.08) rotate(-92.34)" style="fill:#e69f6a"/><rect x="285.61" y="135.75" width="86.42" height="4" rx="1" ry="1" transform="translate(204.63 471.92) rotate(-92.34)" style="fill:#e69f6a"/><rect x="292.4" y="135.47" width="86.42" height="4" rx="1" ry="1" transform="translate(211.97 478.42) rotate(-92.34)" style="fill:#e69f6a"/><path d="M334.17,170.21h1.09a0,0,0,0,1,0,0v12.22a0,0,0,0,1,0,0h-1.09a1.3,1.3,0,0,1-1.3-1.3v-9.61A1.3,1.3,0,0,1,334.17,170.21Z" transform="translate(171.55 517.31) rotate(-92.34)" style="fill:#171617"/><path d="M325.55,99.53l6.72-3.88a1.61,1.61,0,0,1,2,.3l2.64,2.85a1.59,1.59,0,0,1,.18,1.91l-2,3.28a2,2,0,0,1-2.48.79l-6.88-2.94A1.3,1.3,0,0,1,325.55,99.53Z" style="fill:#232323"/><polyline points="336.1 159.51 332.78 156.91 329.86 159.72" style="fill:none;stroke:#2d2d2d;stroke-linecap:round;stroke-linejoin:round"/><polyline points="335.87 156.18 332.55 153.59 329.63 156.39" style="fill:none;stroke:#2d2d2d;stroke-linecap:round;stroke-linejoin:round"/><polyline points="335.69 153.01 332.37 150.41 329.45 153.21" style="fill:none;stroke:#2d2d2d;stroke-linecap:round;stroke-linejoin:round"/><path d="M331.15,125.17c2.35-.18,4.72,1.51,4.89,3.75s-1.93,4.2-4.28,4.37c-0.37,0-3,.41-3.05.06a58.11,58.11,0,0,1-.44-7.91C328.29,125.14,330.83,125.2,331.15,125.17Z" style="fill:#282827"/><path d="M329.63,124.78a2.36,2.36,0,1,0,2.46-1.62A2.11,2.11,0,0,0,329.63,124.78Zm3.76,0.35a1.51,1.51,0,1,1-1.36-1.31A1.35,1.35,0,0,1,333.39,125.12Z" style="fill:#282827"/><polygon points="332.92 345.88 335.25 347.93 334.63 350.98 331.69 351.97 329.36 349.92 329.97 346.87 332.92 345.88" style="fill:#c4c3c0"/><circle cx="332.3" cy="348.93" r="0.93" transform="translate(-79.23 599.55) rotate(-77.74)" style="opacity:0.30000000000000004"/><polygon points="335.12 335.54 337.45 337.59 336.84 340.64 333.9 341.63 331.57 339.58 332.18 336.53 335.12 335.54" style="fill:#c4c3c0"/><circle cx="334.51" cy="338.59" r="0.93" transform="translate(-67.39 593.56) rotate(-77.74)" style="opacity:0.30000000000000004"/><polygon points="337.33 325.2 339.66 327.25 339.05 330.3 336.1 331.29 333.77 329.24 334.38 326.19 337.33 325.2" style="fill:#c4c3c0"/><circle cx="336.71" cy="328.25" r="0.93" transform="translate(-55.55 587.57) rotate(-77.74)" style="opacity:0.30000000000000004"/><polygon points="342 347.82 344.33 349.87 343.72 352.92 340.78 353.91 338.45 351.86 339.06 348.81 342 347.82" style="fill:#a8974d"/><circle cx="341.39" cy="350.86" r="0.93" transform="translate(-73.97 609.96) rotate(-77.74)" style="opacity:0.30000000000000004"/><polygon points="344.21 337.48 346.54 339.53 345.93 342.58 342.98 343.57 340.65 341.52 341.27 338.47 344.21 337.48" style="fill:#a8974d"/><circle cx="343.6" cy="340.52" r="0.93" transform="translate(-62.13 603.97) rotate(-77.74)" style="opacity:0.30000000000000004"/><polygon points="323.83 343.94 326.16 346 325.55 349.04 322.61 350.03 320.27 347.98 320.89 344.94 323.83 343.94" style="fill:#ccbd2e"/><circle cx="323.22" cy="346.99" r="1" transform="translate(-84.5 589.14) rotate(-77.74)" style="opacity:0.30000000000000004"/><polygon points="326.04 333.6 328.37 335.66 327.75 338.7 324.81 339.69 322.48 337.64 323.09 334.6 326.04 333.6" style="fill:#ccbd2e"/><circle cx="325.42" cy="336.65" r="1" transform="translate(-72.66 583.15) rotate(-77.74)" style="opacity:0.30000000000000004"/><rect x="310.46" y="344.11" width="3.58" height="10.03" rx="1" ry="1" transform="translate(718.66 116.29) rotate(102)" style="fill:#e69f6a"/><rect x="281.28" y="308.08" width="84.63" height="4" rx="1" ry="1" transform="translate(694.18 58.03) rotate(102)" style="fill:#e69f6a"/><rect x="275.52" y="306.86" width="84.63" height="4" rx="1" ry="1" transform="translate(686.02 62.19) rotate(102)" style="fill:#e69f6a"/><path d="M328.36,266.23h1.09a0,0,0,0,1,0,0v12.22a0,0,0,0,1,0,0h-1.09a1.3,1.3,0,0,1-1.3-1.3v-9.61A1.3,1.3,0,0,1,328.36,266.23Z" transform="translate(662.89 7.88) rotate(102)" style="fill:#171617"/><path d="M317.44,347.19l-7.47,2.1a1.61,1.61,0,0,1-1.85-.78l-1.85-3.42a1.59,1.59,0,0,1,.29-1.89l2.78-2.68a2,2,0,0,1,2.6-.15l5.94,4.55A1.3,1.3,0,0,1,317.44,347.19Z" style="fill:#232323"/><polyline points="322.09 287.63 324.67 290.97 328.19 288.98" style="fill:none;stroke:#2d2d2d;stroke-linecap:round;stroke-linejoin:round"/><polyline points="321.49 290.91 324.07 294.25 327.59 292.26" style="fill:none;stroke:#2d2d2d;stroke-linecap:round;stroke-linejoin:round"/><polyline points="320.88 294.04 323.45 297.37 326.98 295.38" style="fill:none;stroke:#2d2d2d;stroke-linecap:round;stroke-linejoin:round"/><path d="M317.93,324.67c-2.32-.41-4.2-2.63-3.8-4.84s2.91-3.59,5.23-3.18c0.37,0.07,3,.34,3,0.7a58.11,58.11,0,0,1-1.53,7.77C320.7,325.41,318.24,324.73,317.93,324.67Z" style="fill:#282827"/><path d="M319.3,325.43a2.36,2.36,0,1,0-2.79,1A2.11,2.11,0,0,0,319.3,325.43Zm-3.55-1.26a1.51,1.51,0,1,1,1,1.61A1.35,1.35,0,0,1,315.75,324.17Z" style="fill:#282827"/><polygon points="500.05 253.7 502.34 251.6 505.3 252.53 505.98 255.56 503.69 257.66 500.73 256.73 500.05 253.7" style="fill:#ccbd2e"/><circle cx="503.02" cy="254.63" r="0.93" transform="translate(103.59 652.52) rotate(-71.74)" style="opacity:0.30000000000000004"/><polygon points="502.93 244.87 505.21 242.76 508.18 243.69 508.86 246.72 506.57 248.82 503.61 247.9 502.93 244.87" style="opacity:0.30000000000000004"/><circle cx="505.89" cy="245.79" r="0.93" transform="translate(113.96 649.19) rotate(-71.74)" style="opacity:0.30000000000000004"/><polygon points="497.18 262.54 499.46 260.43 502.42 261.36 503.1 264.39 500.82 266.49 497.85 265.57 497.18 262.54" style="fill:#ccbd2e"/><circle cx="500.14" cy="263.46" r="1" transform="translate(93.22 655.86) rotate(-71.74)" style="opacity:0.30000000000000004"/><polygon points="487.12 259.26 489.41 257.16 492.37 258.09 493.05 261.12 490.76 263.22 487.8 262.29 487.12 259.26" style="fill:#ccbd2e"/><circle cx="490.09" cy="260.19" r="1" transform="translate(89.43 644.06) rotate(-71.74)" style="opacity:0.30000000000000004"/><polygon points="477.07 255.99 479.36 253.89 482.32 254.81 483 257.84 480.71 259.95 477.75 259.02 477.07 255.99" style="fill:#ccbd2e"/><circle cx="480.03" cy="256.92" r="1" transform="translate(85.64 632.27) rotate(-71.74)" style="opacity:0.30000000000000004"/><rect x="498.84" y="270.73" width="3.58" height="10.03" rx="1" ry="1" transform="translate(109.71 -141.21) rotate(18)" style="fill:#e69f6a"/><rect x="377.86" y="251.17" width="128.55" height="4" rx="1" ry="1" transform="translate(99.87 -124.24) rotate(18)" style="fill:#e69f6a"/><rect x="375.56" y="257.42" width="128.55" height="4" rx="1" ry="1" transform="translate(101.69 -123.22) rotate(18)" style="fill:#e69f6a"/><path d="M383.66,231.27h1.09a0,0,0,0,1,0,0v12.22a0,0,0,0,1,0,0h-1.09a1.3,1.3,0,0,1-1.3-1.3v-9.61A1.3,1.3,0,0,1,383.66,231.27Z" transform="translate(92.13 -106.91) rotate(18)" style="fill:#171617"/><path d="M499.34,269.78l1.3,7.65a1.61,1.61,0,0,1-1,1.76l-3.59,1.48a1.59,1.59,0,0,1-1.85-.49l-2.37-3a2,2,0,0,1,.12-2.6l5.15-5.43A1.3,1.3,0,0,1,499.34,269.78Z" style="fill:#232323"/><polyline points="413.02 250.83 416.62 248.62 415 244.91" style="fill:none;stroke:#2d2d2d;stroke-linecap:round;stroke-linejoin:round"/><polyline points="416.23 251.77 419.82 249.56 418.2 245.85" style="fill:none;stroke:#2d2d2d;stroke-linecap:round;stroke-linejoin:round"/><polyline points="419.27 252.71 422.86 250.5 421.24 246.79" style="fill:none;stroke:#2d2d2d;stroke-linecap:round;stroke-linejoin:round"/><path d="M465.35,263.78c-0.65,2.27-3.05,3.9-5.22,3.28s-3.27-3.27-2.61-5.53c0.1-.36.66-2.95,1-2.88A58.11,58.11,0,0,1,466.1,261C466.37,261.1,465.44,263.47,465.35,263.78Z" style="fill:#282827"/><path d="M466.25,262.49a2.36,2.36,0,1,0,.66,2.87A2.11,2.11,0,0,0,466.25,262.49Zm-1.63,3.4a1.51,1.51,0,1,1,1.7-.82A1.35,1.35,0,0,1,464.62,265.9Z" style="fill:#282827"/><polygon points="441.33 104.42 440.65 101.39 442.94 99.28 445.9 100.21 446.58 103.24 444.29 105.35 441.33 104.42" style="fill:#ccbd2e"/><circle cx="443.61" cy="102.32" r="0.93" transform="translate(44.48 321.3) rotate(-41.74)" style="opacity:0.30000000000000004"/><polygon points="447.54 111.33 446.86 108.3 449.15 106.19 452.11 107.12 452.79 110.15 450.5 112.25 447.54 111.33" style="fill:#ccbd2e"/><circle cx="449.83" cy="109.22" r="1" transform="matrix(0.75, -0.67, 0.67, 0.75, 41.46, 327.19)" style="opacity:0.30000000000000004"/><polygon points="439.68 118.4 439 115.37 441.29 113.26 444.25 114.19 444.93 117.22 442.64 119.32 439.68 118.4" style="fill:#ccbd2e"/><circle cx="441.96" cy="116.29" r="1" transform="translate(34.76 323.75) rotate(-41.74)" style="opacity:0.30000000000000004"/><polygon points="431.82 125.47 431.14 122.44 433.42 120.33 436.39 121.26 437.07 124.29 434.78 126.39 431.82 125.47" style="fill:#ccbd2e"/><circle cx="434.1" cy="123.36" r="1" transform="translate(28.05 320.31) rotate(-41.74)" style="opacity:0.30000000000000004"/><polygon points="392.89 149.22 392.21 146.19 394.5 144.09 397.46 145.02 398.14 148.05 395.86 150.15 392.89 149.22" style="fill:#a8974d"/><circle cx="395.18" cy="147.12" r="0.93" transform="translate(2.36 300.42) rotate(-41.74)" style="opacity:0.30000000000000004"/><polygon points="399.29 156.35 398.61 153.32 400.9 151.22 403.86 152.14 404.54 155.17 402.25 157.28 399.29 156.35" style="fill:#ccbd2e"/><circle cx="401.57" cy="154.25" r="1" transform="matrix(0.75, -0.67, 0.67, 0.75, -0.76, 306.49)" style="opacity:0.30000000000000004"/><polygon points="391.43 163.42 390.75 160.39 393.03 158.28 396 159.21 396.68 162.24 394.39 164.35 391.43 163.42" style="fill:#ccbd2e"/><circle cx="393.71" cy="161.32" r="1" transform="translate(-7.46 303.05) rotate(-41.74)" style="opacity:0.30000000000000004"/><rect x="363.48" y="175.26" width="55.23" height="4" rx="1" ry="1" transform="translate(-18.15 307.23) rotate(-42)" style="fill:#5c8ebc"/><rect x="408.5" y="132.95" width="58.44" height="4" rx="1" ry="1" transform="translate(22.13 327.55) rotate(-42)" style="fill:#5c8ebc"/><path d="M374.53,186.51h1.09a0,0,0,0,1,0,0v12.22a0,0,0,0,1,0,0h-1.09a1.3,1.3,0,0,1-1.3-1.3v-9.61A1.3,1.3,0,0,1,374.53,186.51Z" transform="translate(-32.72 300.02) rotate(-42)" style="fill:#171617"/><path d="M457.82,111.53h1.09a0,0,0,0,1,0,0v12.22a0,0,0,0,1,0,0h-1.09a1.3,1.3,0,0,1-1.3-1.3v-9.61A1.3,1.3,0,0,1,457.82,111.53Z" transform="translate(38.85 336.48) rotate(-42)" style="fill:#171617"/><path d="M406.14,156.94l0,0,6.84,7.74a0.54,0.54,0,0,1,0,.76l-6.13,5.42a0.54,0.54,0,0,1-.89-0.32l-1.85-11.4a0.54,0.54,0,0,1,.17-0.48Z" style="fill:#232323"/><polygon points="407.38 158.31 410.26 161.57 411.6 166.63 409.58 168.4 407.38 158.31" style="fill:#787878"/><path d="M419.26,145.31l0,0,6.84,7.74a0.54,0.54,0,0,1,0,.76l-6.13,5.42a0.54,0.54,0,0,1-.89-0.32l-1.85-11.4a0.54,0.54,0,0,1,.17-0.48Z" style="fill:#232323"/><polygon points="420.5 146.68 423.38 149.94 424.72 155 422.7 156.78 420.5 146.68" style="fill:#787878"/><polyline points="389.72 183.19 389.56 178.97 385.54 178.55" style="fill:none;stroke:#2d2d2d;stroke-linecap:round;stroke-linejoin:round"/><polyline points="392.12 180.87 391.95 176.65 387.93 176.23" style="fill:none;stroke:#2d2d2d;stroke-linecap:round;stroke-linejoin:round"/><polyline points="441.18 136.28 441.02 132.06 437 131.64" style="fill:none;stroke:#2d2d2d;stroke-linecap:round;stroke-linejoin:round"/><polyline points="443.57 133.96 443.42 129.74 439.39 129.32" style="fill:none;stroke:#2d2d2d;stroke-linecap:round;stroke-linejoin:round"/><polygon points="424.19 204.62 425.42 201.77 428.5 201.41 430.36 203.9 429.12 206.75 426.04 207.11 424.19 204.62" style="fill:#c4c3c0"/><circle cx="427.27" cy="204.26" r="0.93" transform="translate(-18.28 43.75) rotate(-5.74)" style="opacity:0.30000000000000004"/><polygon points="423.22 195.38 424.45 192.53 427.54 192.17 429.39 194.66 428.16 197.51 425.07 197.87 423.22 195.38" style="fill:#a8974d"/><circle cx="426.31" cy="195.02" r="0.93" transform="translate(-17.36 43.6) rotate(-5.74)" style="opacity:0.30000000000000004"/><polygon points="476.2 198 477.44 195.15 480.52 194.79 482.37 197.29 481.14 200.14 478.06 200.5 476.2 198" style="fill:#c4c3c0"/><circle cx="479.29" cy="197.65" r="0.93" transform="translate(-17.36 48.92) rotate(-5.74)" style="opacity:0.30000000000000004"/><polygon points="465.47 199.28 466.71 196.42 469.79 196.07 471.64 198.56 470.41 201.41 467.33 201.77 465.47 199.28" style="fill:#c4c3c0"/><circle cx="468.56" cy="198.92" r="0.93" transform="translate(-17.54 47.85) rotate(-5.74)" style="opacity:0.30000000000000004"/><rect x="381.65" y="214.32" width="50.3" height="4" rx="1" ry="1" transform="translate(-20.38 43.71) rotate(-6)" style="fill:#5c8ebc"/><rect x="435.53" y="208.63" width="50.3" height="4" rx="1" ry="1" transform="translate(-19.49 49.31) rotate(-6)" style="fill:#5c8ebc"/><path d="M385.3,212.65h1.09a0,0,0,0,1,0,0v12.22a0,0,0,0,1,0,0H385.3a1.3,1.3,0,0,1-1.3-1.3V214A1.3,1.3,0,0,1,385.3,212.65Z" transform="translate(-20.76 41.46) rotate(-6)" style="fill:#171617"/><path d="M480.69,201.93h1.09a0,0,0,0,1,0,0v12.22a0,0,0,0,1,0,0h-1.09a1.3,1.3,0,0,1-1.3-1.3v-9.61A1.3,1.3,0,0,1,480.69,201.93Z" transform="translate(-19.11 51.37) rotate(-6)" style="fill:#171617"/><path d="M429.28,208.14h0l1,10.29a0.54,0.54,0,0,1-.48.59l-8.14.78a0.54,0.54,0,0,1-.53-0.78l5.21-10.31a0.54,0.54,0,0,1,.42-0.29Z" style="fill:#232323"/><polygon points="429.48 209.98 429.9 214.31 428.01 219.19 425.33 219.44 429.48 209.98" style="fill:#787878"/><path d="M444.76,206.83h0l1,10.29a0.54,0.54,0,0,1-.48.59l-8.14.78a0.54,0.54,0,0,1-.53-0.78l5.21-10.31a0.54,0.54,0,0,1,.42-0.29Z" style="fill:#232323"/><polygon points="444.96 208.67 445.38 213 443.49 217.88 440.81 218.13 444.96 208.67" style="fill:#787878"/><polyline points="401.32 220.68 403.67 217.17 400.67 214.47" style="fill:none;stroke:#2d2d2d;stroke-linecap:round;stroke-linejoin:round"/><polyline points="404.63 220.21 406.98 216.7 403.97 214" style="fill:none;stroke:#2d2d2d;stroke-linecap:round;stroke-linejoin:round"/><polyline points="461.5 214.12 463.85 210.61 460.84 207.91" style="fill:none;stroke:#2d2d2d;stroke-linecap:round;stroke-linejoin:round"/><polyline points="464.81 213.65 467.15 210.14 464.15 207.44" style="fill:none;stroke:#2d2d2d;stroke-linecap:round;stroke-linejoin:round"/><polygon points="266.82 358.17 268.12 361 266.32 363.53 263.23 363.24 261.93 360.42 263.73 357.88 266.82 358.17" style="fill:#c4c3c0"/><circle cx="265.02" cy="360.71" r="0.93" transform="translate(-182.58 361.06) rotate(-53.74)" style="opacity:0.30000000000000004"/><polygon points="259.11 352.97 260.41 355.79 258.61 358.33 255.52 358.04 254.22 355.21 256.02 352.68 259.11 352.97" style="fill:#ccbd2e"/><circle cx="257.32" cy="355.5" r="0.93" transform="translate(-181.53 352.72) rotate(-53.74)" style="opacity:0.30000000000000004"/><rect x="268.75" y="280.42" width="53.64" height="4" rx="1" ry="1" transform="translate(697.78 209.31) rotate(126)" style="fill:#5c8ebc"/><rect x="234.67" y="328.3" width="52.2" height="4" rx="1" ry="1" transform="translate(681.28 313.48) rotate(126)" style="fill:#5c8ebc"/><path d="M308.95,258H310a0,0,0,0,1,0,0v12.22a0,0,0,0,1,0,0h-1.09a1.3,1.3,0,0,1-1.3-1.3v-9.61A1.3,1.3,0,0,1,308.95,258Z" transform="translate(704.07 169.55) rotate(126)" style="fill:#171617"/><path d="M247.68,342.37h1.09a0,0,0,0,1,0,0v12.22a0,0,0,0,1,0,0h-1.09a1.3,1.3,0,0,1-1.3-1.3v-9.61A1.3,1.3,0,0,1,247.68,342.37Z" transform="matrix(-0.59, 0.81, -0.81, -0.59, 675.01, 353.02)" style="fill:#171617"/><path d="M285.06,306.12l0,0L276.74,300a0.54,0.54,0,0,1-.11-0.75l4.87-6.57a0.54,0.54,0,0,1,.93.13l4.18,10.77a0.54,0.54,0,0,1-.07.51Z" style="fill:#232323"/><polygon points="283.56 305.04 280.06 302.46 277.7 297.79 279.31 295.63 283.56 305.04" style="fill:#787878"/><path d="M274.7,320.38l0,0-8.31-6.15a0.54,0.54,0,0,1-.11-0.75l4.87-6.57a0.54,0.54,0,0,1,.93.13l4.18,10.77a0.54,0.54,0,0,1-.07.51Z" style="fill:#232323"/><polygon points="273.2 319.3 269.7 316.71 267.34 312.05 268.95 309.89 273.2 319.3" style="fill:#787878"/><polyline points="296.96 274.9 297.99 279 302.01 278.57" style="fill:none;stroke:#2d2d2d;stroke-linecap:round;stroke-linejoin:round"/><polyline points="295.1 277.67 296.13 281.76 300.15 281.34" style="fill:none;stroke:#2d2d2d;stroke-linecap:round;stroke-linejoin:round"/><polyline points="259.13 326.58 260.16 330.67 264.18 330.24" style="fill:none;stroke:#2d2d2d;stroke-linecap:round;stroke-linejoin:round"/><polyline points="257.27 329.35 258.3 333.44 262.32 333.01" style="fill:none;stroke:#2d2d2d;stroke-linecap:round;stroke-linejoin:round"/><polygon points="238.69 328.77 239.37 331.8 237.08 333.9 234.12 332.98 233.44 329.95 235.72 327.84 238.69 328.77" style="fill:#ccbd2e"/><circle cx="236.4" cy="330.87" r="0.93" transform="translate(-160.27 241.36) rotate(-41.74)" style="opacity:0.30000000000000004"/><rect x="262.27" y="268.44" width="48.88" height="4" rx="1" ry="1" transform="translate(680.74 279.58) rotate(138)" style="fill:#5c8ebc"/><rect x="219.77" y="305.6" width="51.35" height="4" rx="1" ry="1" transform="translate(633.67 371.95) rotate(138)" style="fill:#5c8ebc"/><path d="M302,250.65h1.09a0,0,0,0,1,0,0v12.22a0,0,0,0,1,0,0H302a1.3,1.3,0,0,1-1.3-1.3V252A1.3,1.3,0,0,1,302,250.65Z" transform="translate(698.08 245.54) rotate(138)" style="fill:#171617"/><path d="M229.4,316h1.09a0,0,0,0,1,0,0v12.22a0,0,0,0,1,0,0H229.4a1.3,1.3,0,0,1-1.3-1.3v-9.61A1.3,1.3,0,0,1,229.4,316Z" transform="translate(615.25 408.11) rotate(138)" style="fill:#171617"/><path d="M273.37,289.76l0,0L266.51,282a0.54,0.54,0,0,1,0-.76l6.13-5.42a0.54,0.54,0,0,1,.89.32l1.85,11.4a0.54,0.54,0,0,1-.17.48Z" style="fill:#232323"/><polygon points="272.13 288.39 269.25 285.14 267.91 280.08 269.93 278.3 272.13 288.39" style="fill:#787878"/><path d="M261.38,300.56l0,0-6.84-7.74a0.54,0.54,0,0,1,0-.76l6.13-5.42a0.54,0.54,0,0,1,.89.32l1.85,11.4a0.54,0.54,0,0,1-.17.48Z" style="fill:#232323"/><polygon points="260.14 299.19 257.25 295.94 255.92 290.88 257.93 289.1 260.14 299.19" style="fill:#787878"/><polyline points="287.41 265.99 287.57 270.2 291.6 270.63" style="fill:none;stroke:#2d2d2d;stroke-linecap:round;stroke-linejoin:round"/><polyline points="285.02 268.31 285.18 272.53 289.2 272.95" style="fill:none;stroke:#2d2d2d;stroke-linecap:round;stroke-linejoin:round"/><polyline points="244.2 304.27 244.36 308.49 248.38 308.91" style="fill:none;stroke:#2d2d2d;stroke-linecap:round;stroke-linejoin:round"/><polyline points="241.8 306.59 241.96 310.81 245.99 311.23" style="fill:none;stroke:#2d2d2d;stroke-linecap:round;stroke-linejoin:round"/><rect x="263.23" y="174.8" width="49.66" height="4" rx="1" ry="1" transform="translate(383.84 500.93) rotate(-138)" style="fill:#5c8ebc"/><rect x="218.61" y="136.51" width="54.68" height="4" rx="1" ry="1" transform="translate(336.03 406.02) rotate(-138)" style="fill:#5c8ebc"/><path d="M304,183.91H305a0,0,0,0,1,0,0v12.22a0,0,0,0,1,0,0H304a1.3,1.3,0,0,1-1.3-1.3v-9.61A1.3,1.3,0,0,1,304,183.91Z" transform="translate(402.5 534.54) rotate(-138)" style="fill:#171617"/><path d="M228.06,116.12h1.09a0,0,0,0,1,0,0v12.22a0,0,0,0,1,0,0h-1.09a1.3,1.3,0,0,1-1.3-1.3v-9.61A1.3,1.3,0,0,1,228.06,116.12Z" transform="translate(315.57 365.6) rotate(-138)" style="fill:#171617"/><path d="M267.75,165.37l0,0,7-7.62a0.54,0.54,0,0,1,.76,0l6,5.53a0.54,0.54,0,0,1-.22.91l-11.15,3a0.54,0.54,0,0,1-.5-0.12Z" style="fill:#232323"/><polygon points="268.98 164 271.92 160.79 276.81 158.93 278.79 160.75 268.98 164" style="fill:#787878"/><path d="M256.2,154.46l0,0,7-7.62a0.54,0.54,0,0,1,.76,0l6,5.53a0.54,0.54,0,0,1-.22.91l-11.15,3a0.54,0.54,0,0,1-.5-0.12Z" style="fill:#232323"/><polygon points="257.44 153.08 260.37 149.87 265.26 148.02 267.24 149.84 257.44 153.08" style="fill:#787878"/><polyline points="294.65 179.09 290.48 179.69 290.48 183.73" style="fill:none;stroke:#2d2d2d;stroke-linecap:round;stroke-linejoin:round"/><polyline points="292.1 176.95 287.92 177.55 287.92 181.59" style="fill:none;stroke:#2d2d2d;stroke-linecap:round;stroke-linejoin:round"/><polyline points="250.31 138.22 246.14 138.82 246.14 142.86" style="fill:none;stroke:#2d2d2d;stroke-linecap:round;stroke-linejoin:round"/><polyline points="247.75 136.08 243.58 136.68 243.58 140.72" style="fill:none;stroke:#2d2d2d;stroke-linecap:round;stroke-linejoin:round"/><polygon points="401.36 287.5 404.45 287.14 406.3 289.64 405.07 292.49 401.99 292.85 400.13 290.35 401.36 287.5" style="fill:#a8974d"/><circle cx="403.22" cy="290" r="0.93" transform="matrix(0.81, -0.58, 0.58, 0.81, -93.45, 290.12)" style="opacity:0.30000000000000004"/><polygon points="445.47 332.29 448.55 331.93 450.4 334.42 449.17 337.27 446.09 337.63 444.24 335.14 445.47 332.29" style="fill:#c4c3c0"/><circle cx="447.32" cy="334.78" r="0.93" transform="translate(-111.31 324.32) rotate(-35.74)" style="opacity:0.30000000000000004"/><polygon points="438.14 338.01 441.22 337.65 443.07 340.14 441.84 343 438.76 343.35 436.9 340.86 438.14 338.01" style="fill:#ccbd2e"/><circle cx="439.99" cy="340.5" r="0.93" transform="translate(-116.03 321.11) rotate(-35.74)" style="opacity:0.30000000000000004"/><polygon points="452.99 326.83 456.07 326.47 457.93 328.97 456.69 331.82 453.61 332.18 451.76 329.68 452.99 326.83" style="fill:#a8974d"/><circle cx="454.84" cy="329.32" r="0.93" transform="translate(-106.7 327.68) rotate(-35.74)" style="opacity:0.30000000000000004"/><rect x="355.41" y="277.58" width="50.3" height="4" rx="1" ry="1" transform="translate(383.06 -192.63) rotate(54)" style="fill:#5c8ebc"/><rect x="388.24" y="326.3" width="55.44" height="4" rx="1" ry="1" transform="translate(437.06 -201.19) rotate(54)" style="fill:#5c8ebc"/><path d="M368.44,256.65h1.09a0,0,0,0,1,0,0v12.22a0,0,0,0,1,0,0h-1.09a1.3,1.3,0,0,1-1.3-1.3V258A1.3,1.3,0,0,1,368.44,256.65Z" transform="translate(364.41 -189.68) rotate(54)" style="fill:#171617"/><path d="M430.5,342.07h1.09a0,0,0,0,1,0,0v12.22a0,0,0,0,1,0,0H430.5a1.3,1.3,0,0,1-1.3-1.3v-9.61A1.3,1.3,0,0,1,430.5,342.07Z" transform="translate(459.1 -204.68) rotate(54)" style="fill:#171617"/><path d="M398.58,295.13l0,0-8.42,6a0.54,0.54,0,0,1-.75-0.13l-4.75-6.66a0.54,0.54,0,0,1,.41-0.85l11.53-.64a0.54,0.54,0,0,1,.46.22Z" style="fill:#232323"/><polygon points="397.08 296.22 393.54 298.75 388.37 299.55 386.82 297.36 397.08 296.22" style="fill:#787878"/><path d="M409.68,310.41l0,0-8.42,6a0.54,0.54,0,0,1-.75-0.13l-4.75-6.66a0.54,0.54,0,0,1,.41-0.85l11.53-.64a0.54,0.54,0,0,1,.46.22Z" style="fill:#232323"/><polygon points="408.19 311.5 404.64 314.03 399.48 314.83 397.92 312.64 408.19 311.5" style="fill:#787878"/><polyline points="373.82 276.32 378.03 276.6 378.87 272.64" style="fill:none;stroke:#2d2d2d;stroke-linecap:round;stroke-linejoin:round"/><polyline points="375.88 278.94 380.09 279.22 380.93 275.27" style="fill:none;stroke:#2d2d2d;stroke-linecap:round;stroke-linejoin:round"/><polyline points="411.43 327.28 415.64 327.56 416.48 323.61" style="fill:none;stroke:#2d2d2d;stroke-linecap:round;stroke-linejoin:round"/><polyline points="413.49 329.91 417.7 330.19 418.54 326.23" style="fill:none;stroke:#2d2d2d;stroke-linecap:round;stroke-linejoin:round"/><polygon points="361.27 147.63 359.42 145.14 360.65 142.29 363.74 141.93 365.59 144.43 364.36 147.28 361.27 147.63" style="fill:#ccbd2e"/><circle cx="362.5" cy="144.78" r="1" transform="translate(81.55 415.78) rotate(-65.74)" style="opacity:0.30000000000000004"/><rect x="343.74" y="162.68" width="42.26" height="4" rx="1" ry="1" transform="translate(66.03 431.02) rotate(-66)" style="fill:#7db5ac"/><path d="M372.39,143.27h1.09a0,0,0,0,1,0,0v12.22a0,0,0,0,1,0,0h-1.09a1.3,1.3,0,0,1-1.3-1.3v-9.61a1.3,1.3,0,0,1,1.3-1.3Z" transform="translate(84.4 428.72) rotate(-66)" style="fill:#171617"/><polyline points="366.1 170.34 364.24 166.55 360.39 167.8" style="fill:none;stroke:#2d2d2d;stroke-linecap:round;stroke-linejoin:round"/><polyline points="367.34 167.24 365.48 163.46 361.64 164.71" style="fill:none;stroke:#2d2d2d;stroke-linecap:round;stroke-linejoin:round"/><path d="M353.72,177.79a0.4,0.4,0,0,0-.19.54l0.72,1.46,0.14-.08a4.69,4.69,0,0,1,6.28,2.15c0.07,0.14.13,0.28,0.18,0.42l1.52-.74a0.35,0.35,0,0,0,.17-0.46A6.72,6.72,0,0,0,353.72,177.79Z" style="fill:#232323"/><circle cx="337.71" cy="224.48" r="44.79" style="fill:#e8f1fa;stroke:#557cab;stroke-miterlimit:10;stroke-width:2px"/><circle cx="337.71" cy="224.55" r="33.91" style="fill:#cc7b43"/><path d="M337.71,224.53l0.35-33.91a33.91,33.91,0,0,1,26.23,55Z" style="fill:#246797"/><path d="M337.7,224.53l26.56,21.08q-0.77,1-1.6,1.89t-1.74,1.76Z" style="fill:#61c4b2"/><text transform="translate(352.24 189.93) rotate(28.87)" style="font-size:7px;fill:#505251;font-family:Source Sans Pro">3</text><text transform="translate(364.76 197.85) rotate(51.33)" style="font-size:7px;fill:#505251;font-family:Source Sans Pro">5</text><text transform="matrix(0.09, 1, -1, 0.09, 374.28, 218.36)" style="font-size:7px;fill:#505251;font-family:Source Sans Pro">8</text><text transform="matrix(0.29, -0.96, 0.96, 0.29, 376.57, 238.54)" style="font-size:7px;fill:#505251;font-family:Source Sans Pro">10</text><text transform="translate(360.85 259.41) rotate(-36.98)" style="font-size:7px;fill:#505251;font-family:Source Sans Pro">13</text><text transform="translate(327.21 263.95) rotate(12.2)" style="font-size:7px;fill:#505251;font-family:Source Sans Pro">17</text><text transform="translate(310.48 256.04) rotate(35.91)" style="font-size:7px;fill:#505251;font-family:Source Sans Pro">19</text><text transform="matrix(0.7, 0.71, -0.71, 0.7, 304.67, 248.98)" style="font-size:7px;fill:#505251;font-family:Source Sans Pro">20</text><text transform="translate(299.91 223.13) rotate(-85.26)" style="font-size:7px;fill:#505251;font-family:Source Sans Pro">24</text><text transform="translate(308.81 199.55) rotate(-46.26)" style="font-size:7px;fill:#505251;font-family:Source Sans Pro">27</text><text transform="translate(330.79 186.73) rotate(-0.81)" style="font-size:7px;fill:#505251;font-family:Source Sans Pro">31</text><text transform="translate(322.81 225.11)" style="font-size:8px;fill:#fff;font-family:Source Sans Pro;font-weight:700">356 kms</text><rect x="130.51" y="468.66" width="54.53" height="5" style="fill:#e69f6a"/><rect x="131.05" y="481.59" width="52.57" height="5" style="fill:#5c8ebc"/><rect x="131.07" y="494.96" width="52.48" height="5" style="fill:#7db5ac"/><rect x="131.07" y="509.66" width="54.52" height="5" style="fill:#db93c0"/><text transform="translate(55.78 476.62)" style="font-size:10px;font-family:Source Sans Pro">w<tspan x="7.24" y="0">or</tspan><tspan x="16.33" y="0">k</tspan><tspan x="21.2" y="0">out</tspan></text><text transform="translate(45.77 238.87)" style="font-size:10px;font-family:Source Sans Pro"><tspan style="fill:#707071;font-weight:700">Hub + Dis<tspan x="41.14" y="0">t</tspan><tspan x="44.7" y="0">an</tspan><tspan x="55.73" y="0">c</tspan><tspan x="60.21" y="0">e </tspan><tspan x="67.53" y="0">t</tspan><tspan x="71.14" y="0">e</tspan><tspan x="76.19" y="0">xt</tspan></tspan><tspan x="0" y="12">Dis</tspan><tspan x="13.1" y="12">t</tspan><tspan x="16.4" y="12">an</tspan><tspan x="27.19" y="12">c</tspan><tspan x="31.64" y="12">e </tspan><tspan x="38.82" y="12">c</tspan><tspan x="43.54" y="12">y</tspan><tspan x="48.27" y="12">cled</tspan><tspan x="0" y="24">in the month</tspan></text><text transform="translate(46.37 295.11)" style="font-size:10px;font-family:Source Sans Pro"><tspan style="fill:#707071;font-weight:700">Pie Chart</tspan><tspan x="0" y="12">Dis</tspan><tspan x="13.1" y="12">t</tspan><tspan x="16.4" y="12">an</tspan><tspan x="27.19" y="12">c</tspan><tspan x="31.64" y="12">e </tspan><tspan x="38.82" y="12">c</tspan><tspan x="43.54" y="12">y</tspan><tspan x="48.27" y="12">cled</tspan><tspan x="0" y="24">in the month</tspan></text><text transform="translate(55.18 455.49)" style="font-size:10px;fill:#707070;font-family:Source Sans Pro">T<tspan x="5.32" y="0">YPE OF RIDES</tspan></text><text transform="translate(55.18 559.35)" style="font-size:10px;fill:#707070;font-family:Source Sans Pro">ORIGIN - DE<tspan x="50.02" y="0">S</tspan><tspan x="55.26" y="0">TIN</tspan><tspan x="70.02" y="0">A</tspan><tspan x="75.16" y="0">TION B</tspan><tspan x="104.76" y="0">R</tspan><tspan x="110.57" y="0">AKE </tspan><tspan x="129.49" y="0">P</tspan><tspan x="134.85" y="0">ADS</tspan></text><text transform="translate(297.93 563.34)" style="font-size:10px;fill:#707070;font-family:Source Sans Pro">A<tspan x="5.44" y="0">CHIEVEMEN</tspan><tspan x="55.9" y="0">T</tspan><tspan x="60.97" y="0">S IN THE ROUTE SEGMEN</tspan><tspan x="168.06" y="0">T</tspan><tspan x="173.13" y="0">S</tspan></text><text transform="translate(59.99 701.84)" style="font-size:10px;fill:#707070;font-family:Source Sans Pro">SPEED B<tspan x="36.39" y="0">RA</tspan><tspan x="47.64" y="0">CKE</tspan><tspan x="64.71" y="0">T</tspan><tspan x="69.78" y="0">S</tspan></text><text transform="translate(54.78 490.33)" style="font-size:10px;font-family:Source Sans Pro">c<tspan x="4.45" y="0">ommu</tspan><tspan x="32.29" y="0">t</tspan><tspan x="35.67" y="0">e</tspan></text><text transform="translate(55.25 504.91)" style="font-size:10px;font-family:Source Sans Pro">er<tspan x="8.63" y="0">r</tspan><tspan x="11.95" y="0">and</tspan></text><text transform="translate(56.19 519.56)" style="font-size:10px;font-family:Source Sans Pro">leisu<tspan x="20.1" y="0">r</tspan><tspan x="23.57" y="0">e</tspan></text><text transform="translate(56.91 594.66)" style="font-size:10px;font-family:Source Sans Pro">Home 1</text><text transform="translate(104.69 594.66)" style="font-size:10px;font-family:Source Sans Pro">Offi<tspan x="15.14" y="0">c</tspan><tspan x="19.59" y="0">e 1</tspan></text><text transform="translate(56.3 627.34)" style="font-size:10px;font-family:Source Sans Pro">Home 2</text><text transform="translate(104.29 627.34)" style="font-size:10px;font-family:Source Sans Pro">Offi<tspan x="15.14" y="0">c</tspan><tspan x="19.59" y="0">e 2</tspan></text><text transform="translate(142.94 593.6)" style="font-size:10px;font-family:Source Sans Pro">c<tspan x="4.72" y="0">y</tspan><tspan x="9.45" y="0">cle shop</tspan></text><text transform="translate(150 628.28)" style="font-size:10px;font-family:Source Sans Pro">t<tspan x="3.48" y="0">r</tspan><tspan x="6.8" y="0">aining</tspan></text><text transform="translate(109.28 662.43)" style="font-size:10px;font-family:Source Sans Pro">other</text><text transform="translate(51.89 660.89)" style="font-size:10px;font-family:Source Sans Pro">r<tspan x="3.47" y="0">es</tspan><tspan x="12.82" y="0">t</tspan><tspan x="16.12" y="0">au</tspan><tspan x="26.88" y="0">r</tspan><tspan x="30.2" y="0">ant</tspan></text><text transform="translate(154.9 662.19)" style="font-size:10px;font-family:Source Sans Pro">c<tspan x="4.45" y="0">o</tspan><tspan x="9.97" y="0">ff</tspan><tspan x="15.71" y="0">ee</tspan></text><text transform="translate(351.25 579.59)" style="font-size:10px;font-family:Source Sans Pro">3<tspan x="5.07" y="0">r</tspan><tspan x="8.54" y="0">d best</tspan></text><text transform="translate(351.25 592.98)" style="font-size:10px;font-family:Source Sans Pro">2nd best</text><text transform="translate(351.25 606.87)" style="font-size:10px;font-family:Source Sans Pro">PR - pe<tspan x="29.93" y="0">r</tspan><tspan x="33.4" y="0">sonal </tspan><tspan x="58.77" y="0">r</tspan><tspan x="62.24" y="0">e</tspan><tspan x="67.3" y="0">c</tspan><tspan x="71.75" y="0">o</tspan><tspan x="77.27" y="0">r</tspan><tspan x="80.74" y="0">d</tspan></text><path d="M171.42,644a3.94,3.94,0,0,1-3.52,4.09c-2,0-3.58-1.89-3.61-4,0-.33-0.21-2.63.1-2.67a50.87,50.87,0,0,1,6.93,0C171.59,641.54,171.42,643.76,171.42,644Z" style="fill:#282827"/><path d="M171.85,642.73a2.06,2.06,0,1,0,1.3,2.23A1.85,1.85,0,0,0,171.85,642.73ZM171.36,646a1.32,1.32,0,1,1,1.21-1.12A1.18,1.18,0,0,1,171.36,646Z" style="fill:#282827"/><path d="M72.57,605.83h0.59a0,0,0,0,1,0,0V618a0,0,0,0,1,0,0H72.57A1.09,1.09,0,0,1,71.47,617v-10A1.09,1.09,0,0,1,72.57,605.83Z" transform="translate(-8.66 1.09) rotate(-0.81)" style="fill:#171617"/><path d="M76.75,605.65h0.58a0,0,0,0,1,0,0v12.42a0,0,0,0,1,0,0H76.75a1.1,1.1,0,0,1-1.1-1.1V606.75A1.1,1.1,0,0,1,76.75,605.65Z" transform="translate(-8.66 1.15) rotate(-0.81)" style="fill:#171617"/><path d="M127,570.72h0l0,10.33a0.54,0.54,0,0,1-.54.54l-8.18,0a0.54,0.54,0,0,1-.46-0.82L124,571a0.54,0.54,0,0,1,.45-0.25Z" style="fill:#232323"/><polygon points="127 572.57 127.02 576.92 124.68 581.6 121.99 581.6 127 572.57" style="fill:#787878"/><path d="M127,605.32h0l0,10.38a0.49,0.49,0,0,1-.49.5l-8.3,0a0.49,0.49,0,0,1-.42-0.76l6.2-9.87a0.49,0.49,0,0,1,.41-0.23Z" style="fill:#232323"/><polygon points="125.94 605.33 127.02 605.32 127.03 607.66 122.19 616.18 119.51 616.19 125.94 605.33" style="fill:#787878"/><path d="M74.51,570.07H75.6a0,0,0,0,1,0,0v12.22a0,0,0,0,1,0,0H74.51a1.3,1.3,0,0,1-1.3-1.3v-9.61a1.3,1.3,0,0,1,1.3-1.3Z" transform="translate(-8.16 1.11) rotate(-0.81)" style="fill:#171617"/><path d="M168.3,570a0.52,0.52,0,0,0-.74.06l-1.36,1.62,0.17,0.13a6.1,6.1,0,0,1,.77,8.6c-0.13.15-.27,0.3-0.41,0.44l1.69,1.41a0.46,0.46,0,0,0,.64,0A8.73,8.73,0,0,0,168.3,570Z" style="fill:#232323"/><path d="M78.1,637.64l0.26,11.63-4.9-1.47a0.59,0.59,0,0,1-.42-0.54l-0.07-2A0.34,0.34,0,0,1,73.1,645L74,644.3a0.26,0.26,0,0,0,.1-0.21l0-1.45a0.21,0.21,0,0,0-.12-0.19L72.93,642a0.31,0.31,0,0,1-.1-0.22l-0.06-2a0.54,0.54,0,0,1,.37-0.52Z" style="fill:#282827"/><path d="M169.78,604.85l3.5,6.93a1.61,1.61,0,0,1-.41,2l-3,2.47a1.59,1.59,0,0,1-1.92.08l-3.16-2.21a2,2,0,0,1-.65-2.52l3.32-6.71A1.3,1.3,0,0,1,169.78,604.85Z" style="fill:#232323"/><path d="M117.62,642.19v7.66a0.94,0.94,0,0,0,.94.94h7.66a0.94,0.94,0,0,0,.94-0.94v-7.66a0.94,0.94,0,0,0-.94-0.94h-7.66A0.94,0.94,0,0,0,117.62,642.19Zm7.56,3.79a0.66,0.66,0,0,1-.66.66h-4.25a0.66,0.66,0,0,1-.66-0.66v0a0.66,0.66,0,0,1,.66-0.66h4.25a0.66,0.66,0,0,1,.66.66v0Z" style="fill:#282827"/><text transform="translate(94.23 719.85)" style="font-size:10px;font-family:Source Sans Pro">25-30 kmph</text><text transform="translate(94.23 739.43)" style="font-size:10px;font-family:Source Sans Pro">20-25 kmph</text><text transform="translate(94.23 760.36)" style="font-size:10px;font-family:Source Sans Pro">15-20 kmph</text><text transform="translate(94.23 778.02)" style="font-size:10px;font-family:Source Sans Pro">10-15 kmph</text><polyline points="64.81 778.01 67.59 774.84 64.95 771.77" style="fill:none;stroke:#2d2d2d;stroke-linecap:round;stroke-linejoin:round"/><polyline points="64.73 759.34 67.51 756.17 64.87 753.1" style="fill:none;stroke:#2d2d2d;stroke-linecap:round;stroke-linejoin:round"/><polyline points="68.06 759.3 70.84 756.12 68.21 753.05" style="fill:none;stroke:#2d2d2d;stroke-linecap:round;stroke-linejoin:round"/><polyline points="64.62 738.89 67.4 735.72 64.77 732.64" style="fill:none;stroke:#2d2d2d;stroke-linecap:round;stroke-linejoin:round"/><polyline points="67.96 738.85 70.74 735.67 68.1 732.6" style="fill:none;stroke:#2d2d2d;stroke-linecap:round;stroke-linejoin:round"/><polyline points="71.14 738.85 73.92 735.67 71.29 732.6" style="fill:none;stroke:#2d2d2d;stroke-linecap:round;stroke-linejoin:round"/><polyline points="64.62 719.48 67.4 716.3 64.77 713.24" style="fill:none;stroke:#2d2d2d;stroke-linecap:round;stroke-linejoin:round"/><polyline points="67.96 719.44 70.74 716.26 68.1 713.19" style="fill:none;stroke:#2d2d2d;stroke-linecap:round;stroke-linejoin:round"/><polyline points="71.14 719.44 73.92 716.26 71.29 713.19" style="fill:none;stroke:#2d2d2d;stroke-linecap:round;stroke-linejoin:round"/><polyline points="74.19 719.49 76.97 716.31 74.33 713.24" style="fill:none;stroke:#2d2d2d;stroke-linecap:round;stroke-linejoin:round"/><text transform="translate(298.32 466.24)" style="font-size:10px;fill:#787678;font-family:Source Sans Pro">Length of the spoke depicts the length of the ride, <tspan x="0" y="12">color depicts the type of the ride.</tspan><tspan x="0" y="24">Brake pads denote the origin and destination of </tspan><tspan x="0" y="36">the rides. </tspan><tspan x="0" y="48">Cofee mug denotes the cofee stops during the </tspan><tspan x="0" y="60">ride. </tspan></text><line x1="116.02" y1="248.16" x2="300.35" y2="248.16" style="fill:none;stroke:#9d9d9d;stroke-miterlimit:10;stroke-width:0.5px"/><polyline points="116.02 304.58 183.63 304.58 183.63 235.52 318.14 235.52" style="fill:none;stroke:#9d9d9d;stroke-miterlimit:10;stroke-width:0.5px"/><circle cx="115.64" cy="304.57" r="1.4" style="fill:#9d9d9d"/><circle cx="320.4" cy="452.7" r="1.4" style="fill:#9d9d9d"/><circle cx="115.64" cy="248.03" r="1.4" style="fill:#9d9d9d"/><circle cx="285.64" cy="248.03" r="1.4" style="fill:#9d9d9d"/><polygon points="331.47 591.33 333.72 587.33 338.31 587.28 340.65 591.23 338.4 595.23 333.81 595.28 331.47 591.33" style="fill:#c4c3c0"/><circle cx="336.06" cy="591.28" r="1.38" transform="translate(-256.59 924.91) rotate(-89.76)" style="opacity:0.30000000000000004"/><polygon points="315.83 591.33 318.08 587.33 322.68 587.27 325.02 591.22 322.77 595.23 318.18 595.28 315.83 591.33" style="fill:#c4c3c0"/><circle cx="320.43" cy="591.28" r="1.38" transform="translate(-272.16 909.27) rotate(-89.76)" style="opacity:0.30000000000000004"/><polygon points="300.2 591.33 302.45 587.32 307.04 587.27 309.38 591.22 307.13 595.22 302.54 595.28 300.2 591.33" style="fill:#c4c3c0"/><circle cx="304.79" cy="591.27" r="1.38" transform="translate(-287.73 893.63) rotate(-89.76)" style="opacity:0.30000000000000004"/><polygon points="331.47 577.59 333.72 573.59 338.32 573.54 340.66 577.49 338.41 581.49 333.81 581.54 331.47 577.59" style="fill:#a8974d"/><circle cx="336.06" cy="577.54" r="1.38" transform="translate(-242.85 911.23) rotate(-89.76)" style="opacity:0.30000000000000004"/><polygon points="315.84 577.59 318.09 573.59 322.68 573.53 325.02 577.48 322.77 581.49 318.18 581.54 315.84 577.59" style="fill:#a8974d"/><circle cx="320.43" cy="577.54" r="1.38" transform="translate(-258.42 895.59) rotate(-89.76)" style="opacity:0.30000000000000004"/><polygon points="300.2 577.58 302.45 573.58 307.05 573.53 309.39 577.48 307.14 581.48 302.54 581.53 300.2 577.58" style="fill:#a8974d"/><circle cx="304.8" cy="577.53" r="1.38" transform="translate(-273.98 879.95) rotate(-89.76)" style="opacity:0.30000000000000004"/><polygon points="331.47 605.07 333.72 601.07 338.31 601.02 340.65 604.97 338.4 608.97 333.81 609.02 331.47 605.07" style="fill:#ccbd2e"/><circle cx="336.06" cy="605.02" r="1.48" transform="translate(-270.34 938.59) rotate(-89.76)" style="opacity:0.30000000000000004"/><polygon points="315.83 605.07 318.08 601.07 322.67 601.01 325.02 604.97 322.76 608.97 318.17 609.02 315.83 605.07" style="fill:#ccbd2e"/><circle cx="320.42" cy="605.02" r="1.48" transform="translate(-285.91 922.95) rotate(-89.76)" style="opacity:0.30000000000000004"/><polygon points="300.2 605.07 302.45 601.06 307.04 601.01 309.38 604.96 307.13 608.96 302.54 609.02 300.2 605.07" style="fill:#ccbd2e"/><circle cx="304.79" cy="605.01" r="1.48" transform="translate(-301.47 907.31) rotate(-89.76)" style="opacity:0.30000000000000004"/><polyline points="285.77 248.01 285.77 240.3 337.66 240.3 337.66 227" style="fill:none;stroke:#9d9d9d;stroke-miterlimit:10;stroke-width:0.5px"/><line x1="320.58" y1="353.14" x2="320.58" y2="452.81" style="fill:none;stroke:#9d9d9d;stroke-miterlimit:10;stroke-width:0.5px"/><path d="M219.7,120.79l8.35-11.09a294,294,0,0,1,35-38.77l12-11.1" style="fill:none;stroke:#454545;stroke-miterlimit:10;stroke-width:10px"/><path d="M437.56,351.87l-10.56,9a294,294,0,0,1-42.62,30.21l-14.11,8.22" style="fill:none;stroke:#454545;stroke-miterlimit:10;stroke-width:10px"/><path d="M480.42,164.13h0a103.16,103.16,0,0,1,6.81,19.44c0,0.1.07,1.2,0.09,1.29a92.88,92.88,0,0,1,2.27,24.7L489.47,211" style="fill:none;stroke:#454545;stroke-miterlimit:10;stroke-width:9.49877917766571px"/></svg>